<?xml version="1.0" standalone="no"?>
<!DOCTYPE svg PUBLIC "-//W3C//DTD SVG 20010904//EN"
 "http://www.w3.org/TR/2001/REC-SVG-20010904/DTD/svg10.dtd">
<svg version="1.0" xmlns="http://www.w3.org/2000/svg"
 width="650.000000pt" height="241.000000pt" viewBox="0 0 650.000000 241.000000"
 preserveAspectRatio="xMidYMid meet">

<g transform="translate(0.000000,241.000000) scale(0.100000,-0.100000)"
fill="#000000" stroke="none">
<path d="M5252 1924 c-29 -7 -65 -20 -80 -28 -53 -27 -118 -95 -147 -152 -27
-54 -30 -68 -30 -159 0 -87 3 -107 27 -157 14 -31 46 -77 71 -101 l44 -44 -24
-47 -24 -47 38 -15 c25 -11 59 -15 105 -12 56 3 75 9 112 35 25 18 64 37 88
44 106 28 183 85 228 171 27 51 34 77 38 139 10 178 -83 317 -247 369 -73 23
-125 24 -199 4z m18 -334 c0 -27 -3 -30 -30 -30 -27 0 -30 3 -30 30 0 27 3 30
30 30 27 0 30 -3 30 -30z m110 -5 c0 -33 -2 -35 -35 -35 -33 0 -35 2 -35 35 0
33 2 35 35 35 33 0 35 -2 35 -35z m100 5 c0 -27 -3 -30 -30 -30 -27 0 -30 3
-30 30 0 27 3 30 30 30 27 0 30 -3 30 -30z"/>
<path d="M1521 708 l-1 -408 1810 0 1810 0 0 298 c-1 198 -4 291 -10 280 -8
-13 -20 -16 -58 -12 -26 3 -58 12 -72 21 -18 12 -15 5 12 -23 60 -63 82 -124
82 -229 0 -103 -22 -166 -77 -223 -71 -75 -188 -101 -303 -67 -77 22 -146 89
-168 166 -44 146 -4 302 96 376 18 12 27 23 21 23 -7 0 -15 -5 -19 -11 -4 -7
-37 -9 -98 -5 -50 3 -92 5 -93 6 -1 0 -4 8 -6 18 -3 9 -5 -115 -6 -275 l-1
-293 -90 0 -90 0 0 27 0 26 -23 -21 c-55 -52 -150 -66 -222 -33 -86 39 -128
128 -129 276 -1 135 43 234 124 284 27 16 26 16 -36 14 -35 -1 -116 3 -181 8
-65 6 -190 12 -278 14 -87 2 -184 6 -215 9 -30 3 -120 8 -200 12 -80 3 -163 8
-184 9 -21 2 -111 7 -200 10 -222 10 -209 8 -217 36 -5 15 -7 2 -8 -38 l-1
-63 66 0 c57 0 65 -2 60 -17 -2 -10 -8 -42 -11 -70 l-7 -53 -54 0 -54 0 0
-139 c0 -158 4 -168 68 -158 36 6 38 5 65 -44 16 -27 26 -56 23 -64 -9 -24
-112 -48 -178 -42 -73 7 -121 35 -147 90 -16 35 -20 67 -23 199 l-3 158 -37 0
-38 0 0 70 0 70 35 0 35 0 -1 58 c-1 31 -3 49 -6 40 -2 -9 -10 -15 -16 -13 -7
2 -57 6 -112 9 -81 3 -102 8 -113 23 -13 17 -14 16 -9 -7 5 -19 166 -573 193
-662 5 -16 -4 -18 -100 -18 l-105 0 -16 75 -17 76 -96 -3 -97 -3 -15 -70 -15
-70 -103 -3 c-56 -1 -102 0 -102 3 0 4 24 88 54 188 30 100 73 247 96 327 22
80 43 152 46 162 4 13 -1 15 -28 9 -18 -4 -69 -4 -113 -1 l-80 5 -6 35 c-4 19
-7 -148 -8 -372z m1527 206 c94 -39 144 -121 150 -246 l4 -88 -176 0 c-97 0
-176 -2 -176 -5 0 -20 32 -75 51 -89 34 -23 107 -20 161 7 l45 23 38 -54 c43
-61 44 -57 -45 -100 -48 -24 -66 -27 -150 -26 -141 1 -214 42 -261 146 -20 45
-24 68 -23 153 1 114 13 152 71 216 40 44 73 64 130 79 48 12 133 4 181 -16z
m681 -2 c14 -10 34 -31 45 -46 20 -26 21 -43 24 -272 l3 -244 -96 0 -95 0 0
194 c0 107 -4 206 -10 220 -13 36 -53 34 -91 -3 l-29 -29 0 -191 0 -191 -95 0
-95 0 0 285 0 285 85 0 86 0 6 -30 c6 -31 6 -31 27 -12 67 61 177 77 235 34z"/>
<path d="M2891 793 c-11 -10 -25 -37 -30 -60 l-9 -43 79 0 79 0 0 35 c0 68
-71 108 -119 68z"/>
<path d="M2318 1043 c7 -3 16 -2 19 1 4 3 -2 6 -13 5 -11 0 -14 -3 -6 -6z"/>
<path d="M4058 933 c7 -3 16 -2 19 1 4 3 -2 6 -13 5 -11 0 -14 -3 -6 -6z"/>
<path d="M4158 933 c7 -3 16 -2 19 1 4 3 -2 6 -13 5 -11 0 -14 -3 -6 -6z"/>
<path d="M4231 932 c-1 -9 -9 -11 -23 -7 -21 5 -21 5 2 -9 25 -14 36 -7 27 17
-4 9 -6 9 -6 -1z"/>
<path d="M528 916 c-56 -20 -85 -42 -118 -88 -80 -110 -79 -287 1 -397 46 -65
120 -96 229 -95 85 0 140 16 208 60 l23 15 -32 42 c-18 23 -36 46 -40 50 -3 5
-24 0 -45 -11 -87 -43 -160 -35 -194 21 -41 67 -40 67 155 67 l175 0 0 53 c0
122 -51 223 -133 265 -59 31 -172 40 -229 18z m147 -126 c10 -11 21 -38 25
-60 l7 -40 -83 0 c-91 0 -97 5 -75 63 22 57 89 77 126 37z"/>
<path d="M1886 900 c-9 -35 -56 -248 -56 -254 0 -3 29 -6 64 -6 l64 0 -19 83
c-44 197 -45 204 -53 177z"/>
<path d="M975 735 c-11 -262 3 -337 69 -380 59 -39 160 -27 220 26 l34 30 7
-31 7 -30 79 0 79 0 0 280 0 280 -89 0 -88 0 -5 -195 c-4 -188 -5 -196 -28
-220 -29 -31 -75 -34 -90 -6 -6 12 -10 101 -10 220 l0 201 -89 0 -89 0 -7
-175z"/>
<path d="M5481 867 c-1 -22 -5 -27 -18 -23 -10 3 -64 6 -121 7 -82 2 -105 6
-112 18 -7 12 -9 5 -10 -24 0 -84 65 -141 152 -133 81 8 128 70 115 154 l-4
29 -2 -28z"/>
<path d="M4115 766 c-47 -71 -46 -233 1 -281 22 -21 67 -19 98 6 26 20 26 22
26 146 0 142 -5 152 -72 153 -29 0 -41 -6 -53 -24z"/>
<path d="M4768 778 c-27 -21 -38 -63 -38 -149 0 -127 32 -173 105 -155 45 12
60 50 60 157 0 83 -3 102 -21 126 -24 32 -78 43 -106 21z"/>
</g>
</svg>
